<svg width="60.000000" height="60.000000" viewBox="0 0 60 60" fill="none" xmlns="http://www.w3.org/2000/svg" xmlns:xlink="http://www.w3.org/1999/xlink">
	<desc>
			Created with Pixso.
	</desc>
	<defs/>
	<rect id="vuesax/linear/java-script" width="60.000000" height="60.000000" fill="#FFFFFF" fill-opacity="0"/>
	<g opacity="0.580000"/>
	<path id="Vector" d="M49.75 4.99C51.25 4.99 52.5 6.24 52.25 7.74L47.75 48.24C47.75 49.24 47 49.99 46 50.49L30.75 54.74C30.25 54.99 29.75 54.99 29.5 54.74L14.25 50.49C13.25 50.24 12.5 49.49 12.5 48.24L7.75 7.74C7.75 6.24 8.75 4.99 10.25 4.99L49.75 4.99Z" stroke="#2E2BD0" stroke-opacity="1.000000" stroke-width="1.500000" stroke-linejoin="round"/>
	<path id="Vector" d="M26.5 17.5L26.5 40L18.75 37.75" stroke="#2E2BD0" stroke-opacity="1.000000" stroke-width="1.500000" stroke-linejoin="round" stroke-linecap="round"/>
	<path id="Vector" d="M41.25 17.5L33.5 18.5L33.5 31L41.25 29.75L41.25 37.75L32.25 40" stroke="#2E2BD0" stroke-opacity="1.000000" stroke-width="1.500000" stroke-linejoin="round" stroke-linecap="round"/>
	<g opacity="0.000000"/>
</svg>
