<svg width="60.000000" height="60.000000" viewBox="0 0 60 60" fill="none" xmlns="http://www.w3.org/2000/svg" xmlns:xlink="http://www.w3.org/1999/xlink">
	<desc>
			Created with Pixso.
	</desc>
	<defs>
		<clipPath id="clip372_613">
			<rect id="linkedin 1" width="45.000000" height="45.000000" transform="translate(7.500000 7.500000)" fill="white" fill-opacity="0"/>
		</clipPath>
	</defs>
	<rect id="Block" x="0.562500" y="0.562500" rx="15.000000" width="58.875000" height="58.875000" stroke="#2E2BD0" stroke-opacity="1.000000" stroke-width="1.125000"/>
	<rect id="linkedin 1" width="45.000000" height="45.000000" transform="translate(7.500000 7.500000)" fill="#FFFFFF" fill-opacity="0"/>
	<g clip-path="url(#clip372_613)">
		<path id="path299" d="M19.87 41.25L19.87 26.25L23.62 26.25L23.62 41.25L19.87 41.25Z" stroke="#2E2BD0" stroke-opacity="1.000000" stroke-width="1.125000" stroke-linejoin="round"/>
		<path id="path311" d="M21.75 22.5C20.71 22.5 19.87 21.66 19.87 20.62C19.87 19.58 20.71 18.75 21.75 18.75C22.78 18.75 23.62 19.58 23.62 20.62C23.62 21.66 22.78 22.5 21.75 22.5Z" stroke="#2E2BD0" stroke-opacity="1.000000" stroke-width="1.125000" stroke-linejoin="round"/>
		<path id="path315" d="M33.93 30C35.49 30 36.75 31.25 36.75 32.81L36.75 41.25L40.5 41.25L40.5 31.15C40.5 30.39 40.32 29.64 39.98 28.96C38.32 25.64 33.75 25.49 31.56 27.68L31.12 28.12L31.12 26.25L27.37 26.25L27.37 41.25L31.12 41.25L31.12 32.81C31.12 31.25 32.38 30 33.93 30Z" stroke="#2E2BD0" stroke-opacity="1.000000" stroke-width="1.125000" stroke-linejoin="round"/>
	</g>
</svg>
