<svg width="60.000000" height="60.000000" viewBox="0 0 60 60" fill="none" xmlns="http://www.w3.org/2000/svg" xmlns:xlink="http://www.w3.org/1999/xlink">
	<desc>
			Created with Pixso.
	</desc>
	<defs/>
	<rect id="Block" x="0.562500" y="0.562500" rx="15.000000" width="58.875000" height="58.875000" stroke="#2E2BD0" stroke-opacity="1.000000" stroke-width="1.125000"/>
	<g opacity="0.580000"/>
	<path id="Vector" d="M30 48.75C40.31 48.75 48.75 40.31 48.75 30C48.75 19.68 40.31 11.25 30 11.25C19.68 11.25 11.25 19.68 11.25 30C11.25 33.37 12.18 36.56 13.68 39.37L11.58 47.47C11.43 48.04 11.95 48.54 12.51 48.38L20.43 46.12C23.25 47.81 26.62 48.75 30 48.75Z" stroke="#2E2BD0" stroke-opacity="1.000000" stroke-width="1.125000" stroke-linejoin="round"/>
	<path id="Vector" d="M38.22 36.26C38.08 36.56 37.89 36.85 37.65 37.12C37.23 37.57 36.78 37.9 36.26 38.11C35.75 38.32 35.21 38.43 34.61 38.43C33.75 38.43 32.83 38.23 31.86 37.82C30.89 37.4 29.91 36.85 28.95 36.15C27.98 35.44 27.06 34.65 26.18 33.78C25.31 32.91 24.52 31.99 23.82 31.02C23.13 30.06 22.57 29.1 22.17 28.15C21.76 27.19 21.56 26.27 21.56 25.39C21.56 24.81 21.66 24.27 21.86 23.76C22.06 23.25 22.39 22.77 22.83 22.35C23.37 21.82 23.97 21.56 24.59 21.56C24.83 21.56 25.06 21.61 25.28 21.71C25.5 21.81 25.69 21.96 25.84 22.18L27.8 24.94C27.95 25.15 28.06 25.35 28.14 25.53C28.22 25.71 28.26 25.89 28.26 26.05C28.26 26.25 28.2 26.45 28.08 26.65C27.97 26.84 27.81 27.04 27.61 27.24L26.97 27.91C26.87 28 26.83 28.11 26.83 28.25C26.83 28.32 26.84 28.37 26.86 28.44C26.88 28.51 26.91 28.56 26.92 28.61C27.08 28.89 27.34 29.25 27.71 29.69C28.09 30.13 28.5 30.58 28.93 31.02C29.39 31.47 29.83 31.88 30.28 32.26C30.72 32.64 31.08 32.89 31.37 33.04C31.41 33.06 31.46 33.08 31.52 33.11C31.59 33.13 31.66 33.14 31.73 33.14C31.87 33.14 31.99 33.09 32.08 33L32.72 32.37C32.93 32.16 33.13 32 33.33 31.89C33.52 31.78 33.72 31.72 33.93 31.72C34.09 31.72 34.26 31.75 34.44 31.83C34.63 31.9 34.82 32.01 35.04 32.16L37.83 34.14C38.05 34.29 38.2 34.47 38.3 34.68C38.38 34.89 38.43 35.1 38.43 35.34C38.43 35.64 38.37 35.95 38.22 36.26Z" stroke="#2E2BD0" stroke-opacity="1.000000" stroke-width="1.125000"/>
	<g opacity="0.000000"/>
</svg>
