<svg width="60.000000" height="60.000000" viewBox="0 0 60 60" fill="none" xmlns="http://www.w3.org/2000/svg" xmlns:xlink="http://www.w3.org/1999/xlink">
	<desc>
			Created with Pixso.
	</desc>
	<defs/>
	<rect id="Block" x="0.562500" y="0.562500" rx="15.000000" width="58.875000" height="58.875000" stroke="#2E2BD0" stroke-opacity="1.000000" stroke-width="1.125000"/>
	<rect id="vuesax/linear/facebook" width="45.000000" height="45.000000" transform="translate(7.500000 7.500000)" fill="#FFFFFF" fill-opacity="0"/>
	<g opacity="0.580000"/>
	<path id="Vector" d="M31.87 26.62L36.75 26.62C37.12 26.62 37.31 27 37.31 27.37L36.56 30.93C36.56 31.12 36.18 31.31 36 31.31L31.87 31.31L31.87 45L26.25 45L26.25 31.5L23.06 31.5C22.68 31.5 22.5 31.31 22.5 30.93L22.5 27.37C22.5 27 22.68 26.81 23.06 26.81L26.25 26.81L26.25 20.62C26.25 17.43 28.68 15 31.87 15L36.93 15C37.31 15 37.5 15.18 37.5 15.56L37.5 20.06C37.5 20.43 37.31 20.62 36.93 20.62L32.43 20.62C32.06 20.62 31.87 20.81 31.87 21.18L31.87 26.62Z" stroke="#2E2BD0" stroke-opacity="1.000000" stroke-width="1.125000"/>
	<g opacity="0.000000"/>
</svg>
