<svg width="60.000000" height="60.000000" viewBox="0 0 60 60" fill="none" xmlns="http://www.w3.org/2000/svg" xmlns:xlink="http://www.w3.org/1999/xlink">
	<desc>
			Created with Pixso.
	</desc>
	<defs>
		<clipPath id="clip372_592">
			<rect id="instagram 1" width="45.000000" height="45.000000" transform="translate(7.500000 7.500000)" fill="white" fill-opacity="0"/>
		</clipPath>
	</defs>
	<rect id="Block" x="0.562500" y="0.562500" rx="15.000000" width="58.875000" height="58.875000" stroke="#2E2BD0" stroke-opacity="1.000000" stroke-width="1.125000"/>
	<rect id="instagram 1" width="45.000000" height="45.000000" transform="translate(7.500000 7.500000)" fill="#FFFFFF" fill-opacity="0"/>
	<g clip-path="url(#clip372_592)">
		<mask id="mask372_596" mask-type="alpha" maskUnits="userSpaceOnUse" x="7.500000" y="7.500000" width="45.000000" height="45.000000">
			<path id="path153" d="M7.5 7.5L52.5 7.5L52.5 52.5L7.5 52.5L7.5 7.5Z" fill="#000000" fill-opacity="1.000000" fill-rule="nonzero"/>
		</mask>
		<g mask="url(#mask372_596)">
			<path id="path159" d="M30 37.91C25.63 37.91 22.08 34.36 22.08 30C22.08 25.63 25.63 22.08 30 22.08C34.36 22.08 37.91 25.63 37.91 30C37.91 34.36 34.36 37.91 30 37.91Z" stroke="#2E2BD0" stroke-opacity="1.000000" stroke-width="1.125000" stroke-linejoin="round"/>
			<path id="path163" d="M14.09 40.54L14.09 19.45C14.09 16.54 16.54 14.09 19.45 14.09L40.54 14.09C43.45 14.09 45.9 16.54 45.9 19.45L45.9 40.54C45.9 43.45 43.45 45.9 40.54 45.9L19.45 45.9C16.54 45.9 14.09 43.45 14.09 40.54Z" stroke="#2E2BD0" stroke-opacity="1.000000" stroke-width="1.125000" stroke-linejoin="round"/>
			<path id="path171" d="M39.22 22.08C38.5 22.08 37.91 21.5 37.91 20.77C37.91 20.04 38.5 19.45 39.22 19.45C39.95 19.45 40.54 20.04 40.54 20.77C40.54 21.5 39.95 22.08 39.22 22.08Z" stroke="#2E2BD0" stroke-opacity="1.000000" stroke-width="1.125000" stroke-linejoin="round"/>
		</g>
	</g>
</svg>
