<svg width="103.000000" height="103.000000" viewBox="0 0 103 103" fill="none" xmlns="http://www.w3.org/2000/svg" xmlns:xlink="http://www.w3.org/1999/xlink">
	<desc>
			Created with Pixso.
	</desc>
	<defs/>
	<path id="Ellipse 1" d="M94.34 23.18Q104.99 39.78 101.83 59.25Q98.67 78.72 83.31 91.1Q67.95 103.47 48.26 102.42Q28.56 101.37 14.61 87.44Q0.65 73.5 -0.43 53.81Q-1.5 34.11 10.85 18.74Q23.2 3.36 42.66 0.17Q62.13 -3.02 78.74 7.61L77.13 10.14Q61.48 0.13 43.15 3.13Q24.82 6.14 13.19 20.62Q1.55 35.1 2.57 53.64Q3.58 72.19 16.73 85.31Q29.87 98.44 48.42 99.43Q66.96 100.41 81.43 88.76Q95.89 77.1 98.87 58.77Q101.85 40.44 91.82 24.8L94.34 23.18Z" fill="#9695E7" fill-opacity="0.500000" fill-rule="evenodd"/>
	<circle id="Ellipse 2" cx="51.000000" cy="51.000000" r="24.500000" stroke="#9695E7" stroke-opacity="0.500000" stroke-width="3.000000"/>
	<circle id="Ellipse 3" cx="84.000000" cy="18.000000" r="11.500000" stroke="#2E2BD0" stroke-opacity="1.000000" stroke-width="3.000000"/>
</svg>
