<svg width="204.000000" height="63.000000" viewBox="0 0 204 63" fill="none" xmlns="http://www.w3.org/2000/svg" xmlns:xlink="http://www.w3.org/1999/xlink">
	<desc>
			Created with Pixso.
	</desc>
	<defs/>
	<path id="SUPPORT GROUP" d="M76.38 30.55Q76.48 30.79 76.48 31.07Q76.48 31.52 76.31 31.89Q76.13 32.3 75.74 32.62Q75.01 33.23 73.71 33.23Q73.26 33.23 72.82 33.15Q72.17 33.03 71.55 32.73Q70.52 32.22 70.22 31.92Q69.92 31.62 69.76 31.44L67.59 33.59L67.86 33.89Q68.1 34.17 68.64 34.58Q69.17 34.99 69.88 35.39Q70.59 35.78 71.69 36.07Q72.78 36.36 73.96 36.36Q76.93 36.36 78.62 34.89Q78.62 34.88 78.63 34.88Q79.38 34.22 79.8 33.4Q80.32 32.37 80.32 31.07Q80.32 29.6 79.64 28.58Q79.55 28.46 79.46 28.34Q78.89 27.62 78.15 27.17Q77.79 26.95 77.38 26.8Q76.16 26.33 74.95 25.98Q73.73 25.62 72.88 25.11Q72.32 24.78 72.13 24.29Q72.03 24.05 72.03 23.76Q72.03 23.48 72.12 23.23Q72.27 22.81 72.66 22.48Q72.7 22.45 72.73 22.43Q73.35 21.96 74.32 21.96Q74.53 21.96 74.74 21.98Q75.38 22.06 75.98 22.35Q76.79 22.75 77.04 22.99Q77.3 23.23 77.44 23.4L79.59 21.11L79.38 20.88Q79.18 20.63 78.72 20.3Q78.26 19.96 77.64 19.64Q77.03 19.32 76.07 19.08Q75.1 18.84 74.07 18.84Q71.87 18.84 70.36 19.86Q70.08 20.05 69.83 20.28Q68.85 21.14 68.45 22.22Q68.19 22.94 68.19 23.76Q68.19 25.24 68.87 26.26Q68.95 26.38 69.05 26.49Q69.65 27.25 70.43 27.71Q70.75 27.9 71.11 28.04Q72.33 28.51 73.55 28.85Q74.78 29.2 75.63 29.71Q76.19 30.06 76.38 30.55ZM134.5 30.76Q135.16 32.42 136.56 33.79Q137.7 34.89 139.06 35.52Q140.86 36.36 143.04 36.36Q145.23 36.36 147.03 35.52Q148.39 34.89 149.52 33.79Q150.92 32.42 151.58 30.76Q152.17 29.29 152.17 27.59Q152.17 25.88 151.58 24.41Q150.92 22.76 149.52 21.41Q148.39 20.31 147.05 19.68Q145.24 18.84 143.04 18.84Q140.85 18.84 139.04 19.68Q137.69 20.31 136.56 21.41Q135.17 22.76 134.51 24.41Q133.92 25.88 133.92 27.59Q133.92 29.29 134.5 30.76ZM89.46 32.88Q88.72 32.6 88.12 31.97Q87.68 31.51 87.42 30.98Q87.02 30.16 87.02 29.15L87.02 19.19L83.42 19.19L83.42 29.15Q83.42 30.92 84.11 32.35Q84.62 33.41 85.51 34.29Q86.31 35.08 87.26 35.57Q88.8 36.36 90.74 36.36Q92.69 36.36 94.23 35.57Q95.18 35.08 95.98 34.29Q96.86 33.41 97.37 32.35Q98.06 30.92 98.06 29.15L98.06 19.19L94.46 19.19L94.46 29.15Q94.46 30.2 94.04 31.04Q93.78 31.55 93.37 31.98Q92.78 32.59 92.06 32.87Q91.45 33.11 90.75 33.11Q90.06 33.11 89.46 32.88ZM109.34 19.19L102.26 19.19L102.26 36L105.87 36L105.87 30.48L109.34 30.48Q111.11 30.48 112.46 29.72Q113.09 29.37 113.64 28.85Q114.43 28.09 114.85 27.16Q115.34 26.11 115.34 24.83Q115.34 23.57 114.86 22.51Q114.43 21.58 113.63 20.81Q113.07 20.28 112.41 19.92Q111.07 19.19 109.34 19.19ZM125.65 19.19L118.57 19.19L118.57 36L122.18 36L122.18 30.48L125.65 30.48Q127.42 30.48 128.77 29.72Q129.41 29.37 129.95 28.85Q130.74 28.09 131.17 27.16Q131.65 26.11 131.65 24.83Q131.65 23.57 131.17 22.51Q130.75 21.58 129.94 20.81Q129.38 20.28 128.72 19.92Q127.38 19.19 125.65 19.19ZM155.52 19.19L155.52 36L159.13 36L159.13 30.11L162.25 30.11L165.48 36L169.32 36L165.73 29.63L166.03 29.47Q166.35 29.33 166.79 28.94Q167.24 28.55 167.67 28.01Q168.09 27.48 168.41 26.6Q168.73 25.72 168.73 24.71Q168.73 23.49 168.28 22.48Q167.87 21.55 167.09 20.79Q166.52 20.23 165.85 19.87Q164.59 19.19 162.96 19.19L155.52 19.19ZM183.6 19.19L170.4 19.19L170.4 22.44L175.21 22.44L175.21 36L178.8 36L178.8 22.44L183.6 22.44L183.6 19.19ZM138.15 25.2Q138.53 24.37 139.22 23.67Q139.99 22.89 140.92 22.49Q141.89 22.07 143.04 22.07Q144.2 22.07 145.17 22.49Q146.1 22.89 146.87 23.67Q147.55 24.37 147.94 25.2Q148.44 26.29 148.44 27.6Q148.44 28.92 147.94 30Q147.55 30.83 146.87 31.52Q146.11 32.29 145.18 32.69Q144.2 33.11 143.04 33.11Q141.89 33.11 140.91 32.69Q139.98 32.29 139.22 31.52Q138.54 30.83 138.15 30Q137.65 28.92 137.65 27.6Q137.65 26.29 138.15 25.2ZM105.87 22.44L109.22 22.44Q109.89 22.44 110.43 22.71Q110.75 22.87 111.02 23.13Q111.37 23.48 111.55 23.89Q111.74 24.33 111.74 24.84Q111.74 25.36 111.55 25.79Q111.37 26.2 111.02 26.54Q110.75 26.79 110.45 26.95Q109.9 27.23 109.22 27.23L105.87 27.23L105.87 22.44ZM122.18 22.44L125.53 22.44Q126.21 22.44 126.74 22.71Q127.06 22.87 127.33 23.13Q127.68 23.48 127.86 23.89Q128.05 24.33 128.05 24.84Q128.05 25.36 127.86 25.79Q127.68 26.2 127.33 26.54Q127.07 26.79 126.76 26.95Q126.22 27.23 125.53 27.23L122.18 27.23L122.18 22.44ZM164.88 23.62Q165.13 24.1 165.13 24.71Q165.13 25.18 164.95 25.58Q164.79 25.95 164.48 26.25Q164.25 26.47 163.98 26.61Q163.48 26.88 162.84 26.88L159.13 26.88L159.13 22.44L162.84 22.44Q163.46 22.44 163.94 22.69Q164.23 22.84 164.48 23.08Q164.72 23.33 164.88 23.62ZM84.63 50.88L78.03 50.88L78.03 53.51L81.03 53.51L81.03 55.8L80.67 56.1Q80.3 56.44 79.37 56.78Q78.44 57.11 77.32 57.11Q75.94 57.11 74.82 56.57Q74.03 56.18 73.38 55.53Q72.73 54.88 72.35 54.09Q71.8 52.98 71.8 51.59Q71.8 50.21 72.35 49.09Q72.73 48.31 73.38 47.66Q74.03 47 74.82 46.62Q75.94 46.07 77.32 46.07Q77.68 46.07 78.04 46.12Q78.52 46.19 79 46.34Q79.82 46.6 80.32 46.91Q80.56 47.06 80.78 47.23Q81.03 47.42 81.25 47.63Q81.68 48.04 81.8 48.21Q81.92 48.38 82 48.48L84.28 46.19L84.01 45.84Q83.75 45.5 83.16 45.01Q82.57 44.51 81.8 44.02Q81.03 43.53 79.84 43.18Q78.64 42.84 77.32 42.84Q75.11 42.84 73.3 43.69Q71.96 44.31 70.83 45.41Q69.44 46.76 68.78 48.41Q68.19 49.88 68.19 51.59Q68.19 53.29 68.77 54.76Q69.43 56.42 70.83 57.79Q71.96 58.88 73.31 59.51Q75.12 60.36 77.32 60.36Q78.37 60.36 79.37 60.14Q79.65 60.08 79.91 60.01Q81.17 59.66 81.95 59.23Q82.25 59.07 82.53 58.89Q83 58.59 83.43 58.24Q84.13 57.69 84.33 57.46Q84.54 57.23 84.63 57.11L84.63 50.88ZM105.24 54.76Q105.9 56.42 107.3 57.79Q108.44 58.89 109.79 59.52Q111.59 60.36 113.78 60.36Q115.97 60.36 117.77 59.52Q119.13 58.89 120.26 57.79Q121.66 56.42 122.32 54.76Q122.91 53.29 122.91 51.59Q122.91 49.88 122.32 48.41Q121.66 46.76 120.26 45.41Q119.13 44.31 117.78 43.68Q115.98 42.84 113.78 42.84Q111.59 42.84 109.78 43.68Q108.43 44.31 107.3 45.41Q105.91 46.76 105.25 48.41Q104.66 49.88 104.66 51.59Q104.66 53.29 105.24 54.76ZM88.58 43.19L88.58 60L92.19 60L92.19 54.11L95.31 54.11L98.54 60L102.39 60L98.79 53.63L99.09 53.47Q99.41 53.33 99.85 52.94Q100.3 52.55 100.73 52.01Q101.16 51.48 101.47 50.6Q101.79 49.72 101.79 48.71Q101.79 47.49 101.34 46.48Q100.93 45.55 100.15 44.79Q99.58 44.23 98.91 43.87Q97.65 43.19 96.02 43.19L88.58 43.19ZM132.17 56.88Q131.44 56.6 130.83 55.97Q130.4 55.51 130.13 54.98Q129.74 54.16 129.74 53.15L129.74 43.19L126.14 43.19L126.14 53.15Q126.14 54.92 126.83 56.35Q127.34 57.41 128.23 58.29Q129.02 59.08 129.98 59.57Q131.52 60.36 133.46 60.36Q135.4 60.36 136.94 59.57Q137.89 59.08 138.69 58.29Q139.58 57.41 140.09 56.35Q140.78 54.92 140.78 53.15L140.78 43.19L137.18 43.19L137.18 53.15Q137.18 54.2 136.75 55.04Q136.5 55.55 136.09 55.98Q135.5 56.59 134.78 56.87Q134.17 57.11 133.46 57.11Q132.77 57.11 132.17 56.88ZM152.05 43.19L144.97 43.19L144.97 60L148.58 60L148.58 54.48L152.05 54.48Q153.82 54.48 155.17 53.72Q155.81 53.37 156.35 52.85Q157.15 52.09 157.57 51.16Q158.05 50.11 158.05 48.83Q158.05 47.57 157.57 46.51Q157.15 45.58 156.35 44.81Q155.78 44.28 155.13 43.92Q153.79 43.19 152.05 43.19ZM108.89 49.2Q109.27 48.37 109.96 47.67Q110.72 46.89 111.66 46.49Q112.63 46.07 113.78 46.07Q114.93 46.07 115.91 46.49Q116.84 46.89 117.61 47.67Q118.29 48.37 118.68 49.2Q119.18 50.29 119.18 51.6Q119.18 52.92 118.67 54Q118.29 54.83 117.61 55.52Q116.85 56.29 115.92 56.69Q114.94 57.11 113.78 57.11Q112.62 57.11 111.65 56.69Q110.72 56.29 109.96 55.52Q109.28 54.83 108.89 54Q108.39 52.92 108.39 51.6Q108.39 50.29 108.89 49.2ZM97.94 47.62Q98.19 48.1 98.19 48.71Q98.19 49.18 98.02 49.58Q97.85 49.95 97.54 50.25Q97.31 50.47 97.05 50.61Q96.55 50.88 95.91 50.88L92.19 50.88L92.19 46.44L95.91 46.44Q96.52 46.44 97 46.69Q97.3 46.84 97.54 47.08Q97.79 47.33 97.94 47.62ZM148.58 46.44L151.93 46.44Q152.61 46.44 153.14 46.71Q153.46 46.87 153.73 47.13Q154.09 47.48 154.27 47.89Q154.45 48.33 154.45 48.84Q154.45 49.36 154.26 49.79Q154.08 50.2 153.73 50.54Q153.47 50.79 153.16 50.95Q152.62 51.23 151.93 51.23L148.58 51.23L148.58 46.44Z" fill="#FFFFFF" fill-opacity="1.000000" fill-rule="evenodd"/>
	<path id="Vector 1" d="M1.7 61L1.7 18.63L14.69 18.63L14.69 61L1.7 61ZM18.45 30.16L18.45 18.63L59.47 18.63L59.47 30.16L45.8 30.16L45.8 61L32.12 61L32.12 30.16L18.45 30.16Z" fill="#FFFFFF" fill-opacity="1.000000" fill-rule="evenodd"/>
	<path id="Vector 2" d="M14.69 15.25L7.62 15.25C7.43 15.25 7.25 15.24 7.07 15.23C3.11 14.94 0 11.65 0 7.62L0 7.34C0 3.29 3.29 0 7.34 0C11.4 0 14.69 3.29 14.69 7.34L14.69 15.25Z" fill="#FFFFFF" fill-opacity="1.000000" fill-rule="evenodd"/>
</svg>
