<svg width="24.000000" height="24.000000" viewBox="0 0 24 24" fill="none" xmlns="http://www.w3.org/2000/svg" xmlns:xlink="http://www.w3.org/1999/xlink">
	<desc>
			Created with Pixso.
	</desc>
	<defs/>
	<rect id="vuesax/linear/direct-inbox" width="24.000000" height="24.000000" fill="#FFFFFF" fill-opacity="0"/>
	<path id="Vector" d="M12 2L12 9L14 7" stroke="#FFFFFF" stroke-opacity="1.000000" stroke-width="1.500000" stroke-linejoin="round" stroke-linecap="round"/>
	<path id="Vector" d="M12 9L10 7" stroke="#FFFFFF" stroke-opacity="1.000000" stroke-width="1.500000" stroke-linejoin="round" stroke-linecap="round"/>
	<path id="Vector" d="M1.98 13L6.39 13C6.77 13 7.11 13.21 7.28 13.54L8.45 15.89C8.79 16.56 9.48 17 10.24 17L13.77 17C14.53 17 15.22 16.56 15.56 15.89L16.73 13.54C16.9 13.21 17.25 13 17.62 13L21.98 13" stroke="#FFFFFF" stroke-opacity="1.000000" stroke-width="1.500000" stroke-linejoin="round" stroke-linecap="round"/>
	<path id="Vector" d="M7 4.12C3.45 4.64 2 6.72 2 11L2 15C2 20 4 22 9 22L15 22C20 22 22 20 22 15L22 11C22 6.72 20.54 4.64 17 4.12" stroke="#FFFFFF" stroke-opacity="1.000000" stroke-width="1.500000" stroke-linejoin="round" stroke-linecap="round"/>
	<g opacity="0.000000"/>
</svg>
