<svg width="60.000000" height="61.000000" viewBox="0 0 60 61" fill="none" xmlns="http://www.w3.org/2000/svg" xmlns:xlink="http://www.w3.org/1999/xlink">
	<desc>
			Created with Pixso.
	</desc>
	<defs/>
	<path id="Vector 1" d="M1.7 61L1.7 18.63L14.69 18.63L14.69 61L1.7 61ZM18.45 30.16L18.45 18.63L59.47 18.63L59.47 30.16L45.8 30.16L45.8 61L32.12 61L32.12 30.16L18.45 30.16Z" fill="#000" fill-opacity="1.000000" fill-rule="evenodd"/>
	<path id="Vector 2" d="M14.69 15.25L7.62 15.25C7.43 15.25 7.25 15.24 7.07 15.23C3.11 14.94 0 11.65 0 7.62L0 7.34C0 3.29 3.29 0 7.34 0C11.4 0 14.69 3.29 14.69 7.34L14.69 15.25Z" fill="#000" fill-opacity="1.000000" fill-rule="evenodd"/>
</svg>
